<svg class="svg-icon" style="width: 1em; height: 1em;vertical-align: middle;fill: currentColor;overflow: hidden;" viewBox="0 0 1024 1024" version="1.1" xmlns="http://www.w3.org/2000/svg"><path d="M768 170.666667v128a85.333333 85.333333 0 0 1-85.333333 85.333333H341.333333a85.333333 85.333333 0 0 1-85.333333-85.333333V170.666667a128 128 0 0 0-128 128v512a128 128 0 0 0 128 128h512a128 128 0 0 0 128-128V298.666667a128 128 0 0 0-128-128z" fill="#231F20" /><path d="M298.666667 85.333333m42.666666 0l341.333334 0q42.666667 0 42.666666 42.666667l0 170.666667q0 42.666667-42.666666 42.666666l-341.333334 0q-42.666667 0-42.666666-42.666666l0-170.666667q0-42.666667 42.666666-42.666667Z" fill="#231F20" /></svg>