<svg class="svg-icon" style="width: 1em; height: 1em;vertical-align: middle;fill: currentColor;overflow: hidden;" viewBox="0 0 1024 1024" version="1.1" xmlns="http://www.w3.org/2000/svg"><path d="M928 745.6v25.9c0 28.6-23.2 51.9-51.9 51.9H149.9c-28.6 0-51.9-23.2-51.9-51.9V252.8c0-28.6 23.2-51.9 51.9-51.9H430l83 77.8h332c45.6 0 83 35 83 77.8v389.1zM513 408.4c-21.5 0-38.9 17.4-38.9 38.9v77.8h-77.8c-21.5 0-38.9 17.4-38.9 38.9s17.4 38.9 38.9 38.9h77.8v77.8c0 21.5 17.4 38.9 38.9 38.9s38.9-17.4 38.9-38.9v-77.8h77.8c21.5 0 38.9-17.4 38.9-38.9s-17.4-38.9-38.9-38.9h-77.8v-77.8c0-21.5-17.4-38.9-38.9-38.9z"  /></svg>