<?xml version="1.0" encoding="UTF-8" standalone="no"?>
<svg
   class="svg-icon"
   style="width: 1em;height: 1em;vertical-align: middle;fill: currentColor;overflow: hidden;"
   viewBox="0 0 1024 1024"
   version="1.1"
   id="svg3"
   sodipodi:docname="text.svg"
   inkscape:version="1.4.2 (f4327f4, 2025-05-13)"
   xmlns:inkscape="http://www.inkscape.org/namespaces/inkscape"
   xmlns:sodipodi="http://sodipodi.sourceforge.net/DTD/sodipodi-0.dtd"
   xmlns="http://www.w3.org/2000/svg"
   xmlns:svg="http://www.w3.org/2000/svg">
  <defs
     id="defs3" />
  <sodipodi:namedview
     id="namedview3"
     pagecolor="#505050"
     bordercolor="#eeeeee"
     borderopacity="1"
     inkscape:showpageshadow="0"
     inkscape:pageopacity="0"
     inkscape:pagecheckerboard="0"
     inkscape:deskcolor="#505050"
     inkscape:zoom="1.1396484"
     inkscape:cx="512"
     inkscape:cy="512"
     inkscape:window-width="2560"
     inkscape:window-height="1369"
     inkscape:window-x="1072"
     inkscape:window-y="196"
     inkscape:window-maximized="1"
     inkscape:current-layer="svg3" />
  <path
     d="M160 0h512l256 256v704c0 35.3472-28.6528 64-64 64H160c-35.3472 0-64-28.6528-64-64V64c0-35.3472 28.6528-64 64-64z"
     fill="#8289AD"
     id="path1"
     style="fill:#ff8775;fill-opacity:1" />
  <path
     d="M672 0l256 256h-192c-35.3472 0-64-28.6528-64-64V0z"
     fill="#CDCFDE"
     id="path3"
     style="fill:#ffd6c7;fill-opacity:1" />
  <path
     d="M 347.6007,690.3564 226.23692,588.07951 347.6007,485.98268 l 28.09013,28.45027 -89.31221,73.28643 89.31221,74.18676 z m 118.6628,34.57247 H 423.5881 L 549.27344,431.78314 h 42.85545 z M 676.39929,485.98268 797.76306,588.07951 676.39929,690.3564 l -27.91007,-28.45026 89.13215,-73.4665 -89.13215,-74.00669 z"
     id="text3"
     style="font-weight:bold;font-size:368.773px;font-family:Consolas;-inkscape-font-specification:'Consolas, Bold';fill:#ffffff;stroke-width:30.731"
     aria-label="&lt;/&gt;" />
</svg>
